<svg data-v-70b83f88="" version="1.0" xmlns="http://www.w3.org/2000/svg" xmlns:xlink="http://www.w3.org/1999/xlink" width="100%" height="100%" viewBox="0 0 340.000000 250.000000" preserveAspectRatio="xMidYMid meet" color-interpolation-filters="sRGB" style="margin: auto;"> <rect data-v-70b83f88="" x="0" y="0" width="100%" height="100%" fill="#ffffff" fill-opacity="0" class="background"></rect> <rect data-v-70b83f88="" x="0" y="0" width="100%" height="100%" fill="url(#watermark)" fill-opacity="0" class="watermarklayer"></rect> <g data-v-70b83f88="" fill="#de8972" class="basesvg" transform="translate(3.3215947449475607,30.49662073690024)"><g data-gra="path-name" fill-rule="" class="tp-name" transform="translate(0,0)"><g transform="scale(3.260000000000002)"><g><path d="M10.37 3.06L8.65 3.33 6.23 2.42Q5.53 1.77 5.53 0.67 5.53-0.43 5.53-1.4L5.53-1.4 6.23-2.36 8.65-4.24 12.78-4.89Q14.18-4.24 14.53-3.14 14.88-2.04 14.56-0.75L14.56-0.75 10.37 3.06ZM7.14-10.21L7.14-10.21 4.73-11.12 4.03-14.61 4.73-15.58Q6.12-16.54 8.19-16.38 10.26-16.22 11.98-16.22L11.98-16.22Q13.37-15.58 13.72-14.45 14.07-13.32 13.7-12.14L13.7-12.14Q12.68-10.47 10.77-10.34 8.86-10.21 7.14-10.21ZM5.85-22.08L5.85-22.08 5-22.83 4.46-25.89 5.91-27.93Q7.41-28.68 9.13-28.25 10.85-27.82 12.51-27.55L12.51-27.55Q13.8-26.69 13.94-25.54 14.07-24.38 13.48-23.15L13.48-23.15Q11.82-21.81 9.88-21.78 7.95-21.75 5.85-22.08ZM28.74 4.03L28.74 4.03Q27.39 3.49 26 3.76 24.6 4.03 23.53 3.06L23.53 3.06Q22.5 1.83 22.5 0.4 22.5-1.02 22.5-2.58L22.5-2.58Q22.4-3.92 22.83-5.59L22.83-5.59Q23.15-6.88 24.17-8.22L24.17-8.22Q19.07-3.92 17.83-7.25 16.6-10.58 17.99-11.39L17.99-11.39 19.17-12.25Q25.78-16.01 26.05-17.72L26.05-17.72 24.17-21.11 20.95-18.58 18.53-18.48 17.03-19.66Q16.27-21 16.81-23.2L16.81-23.2 17.51-24.01Q18.53-24.81 19.69-26 20.84-27.18 22.4-28.31L22.4-28.31 27.77-32.87Q29.33-33.52 30.45-33.46L30.45-33.46 30.13-34.54 22.56-34.48Q22.5-33.52 22.48-32.31 22.45-31.1 21.05-30.4L21.05-30.4 17.94-30.19 16.92-30.88 15.95-34.64 12.51-35.77Q11.01-37.06 12.62-38.51L12.62-38.51 15.74-39.1Q15.79-40.07 15.95-40.69 16.11-41.3 16.87-42.27L16.87-42.27Q18.37-43.61 20.68-42.92L20.68-42.92Q22.08-42.16 22.21-41.04 22.34-39.91 22.29-38.94L22.29-38.94 30.24-38.99 31.31-41.46Q32.55-42.92 35.18-42.06L35.18-42.06Q36.52-41.36 36.87-40.55 37.22-39.75 36.79-38.78L36.79-38.78 38.62-38.3Q40.28-36.79 38.94-35.23L38.94-35.23 36.68-34.64Q36.63-33.3 36.47-32.5L36.47-32.5Q36.36-31.9 35.72-31.37L35.72-31.37Q37.01-30.78 38.24-30.13L38.24-30.13Q41.14-28.63 43.29-25.51L43.29-25.51Q43.83-24.55 43.72-23.39 43.61-22.24 43.51-21.32L43.51-21.32 38.24-17.62Q41.73-16.27 44.55-14.56 47.37-12.84 50.27-10.37L50.27-10.37Q50.97-8.59 50.33-7.47L50.33-7.47Q49.47-6.23 48.23-6.07 47-5.91 45.65-6.34L45.65-6.34Q44.47-7.09 42.59-8.27L42.59-8.27 42.86-7.73Q43.45-6.45 43.56-3.63 43.67-0.81 42.86 0.54L42.86 0.54Q39.75 3.71 35.96 3.87 32.17 4.03 28.74 4.03ZM36.2-0.97L36.2-0.97Q37.11-1.72 37.33-2.6 37.54-3.49 36.85-5.37L36.85-5.37Q34.8-6.07 32.33-5.75 29.86-5.42 29.06-4.57L29.06-4.57Q27.98-3.92 27.93-3.14 27.88-2.36 28.36-1.34L28.36-1.34Q29.86-0.54 36.2-0.97ZM31.58-20.89L35.18-24.71Q32.66-26.91 31.15-27.18L31.15-27.18 27.07-23.42Q28.36-22.67 29.06-22.34 29.76-22.02 31.58-20.89L31.58-20.89ZM31.47-10.8L31.47-10.8Q35.23-10.58 38.67-10.58L38.67-10.58Q35.07-12.57 31.85-13.91L31.85-13.91Q28.9-11.44 26.69-9.56L26.69-9.56Q29.27-10.9 31.47-10.8ZM81.8-15.74L81.8-15.74 79.38-16.76Q78.26-18.37 78.69-19.93L78.69-19.93 79.38-21Q81.48-22.02 82.88-21.83 84.27-21.65 86.69-21.65L86.69-21.65 86.69-25.78Q83.95-25.78 82.55-25.59 81.16-25.41 78.74-26.8L78.74-26.8Q77.88-27.77 78.04-29.76L78.04-29.76 78.74-30.78Q81.16-31.8 82.55-31.64 83.95-31.47 86.69-31.47L86.69-31.47 86.69-35.07Q83.95-35.07 82.61-34.89 81.26-34.7 78.85-36.09L78.85-36.09Q77.93-37.71 78.15-38.83L78.15-38.83 78.85-39.85 79.92-40.55Q81.43-41.3 99.9-40.55L99.9-40.55Q100.65-39.85 101-39.18 101.35-38.51 100.98-37.11L100.98-37.11Q99.58-35.07 97.27-35.07 94.96-35.07 92.87-35.07L92.87-35.07 92.87-31.47Q94.96-31.8 97.7-31.29 100.44-30.78 101.89-27.34L101.89-27.34Q102.53-25.67 102.21-21.65L102.21-21.65Q103.23-21.65 104.17-21.48 105.11-21.32 105.81-20.3L105.81-20.3Q106.56-18.64 106.13-17.83L106.13-17.83Q105.43-16.76 104.68-16.44 103.93-16.11 102.91-15.74L102.91-15.74Q82.71-15.31 81.8-15.74ZM92.87-21.65L96.73-21.65Q97.16-23.15 96.73-24.71L96.73-24.71Q95.66-26.1 95.12-25.94 94.58-25.78 92.87-25.78L92.87-25.78 92.87-21.65ZM86.53 1.18L86.53 1.18Q83.04 0.48 81.21-0.64L81.21-0.64Q80.51-1.56 79.84-3.28 79.17-5 79.49-6.23L79.49-6.23Q79.98-11.66 81.64-12.3L81.64-12.3 84.11-13.75Q87.55-14.77 90.53-14.5 93.51-14.23 97.32-14.23L97.32-14.23Q99.63-13.43 100.6-11.28L100.6-11.28Q101.3-6.5 100.71-1.5L100.71-1.5Q98.34 0.43 94.21 1.07 90.07 1.72 86.53 1.18ZM91.95-3.01L91.95-3.01Q93.99-3.38 95.18-4.73L95.18-4.73Q95.55-6.88 94.91-9.35L94.91-9.35Q91.2-10.26 87.92-9.56L87.92-9.56Q85.99-9.24 85.29-8.08 84.59-6.93 85.13-5.32L85.13-5.32 85.83-3.6Q89.21-2.9 91.95-3.01ZM62.09-0.38L62.09-0.38 61.02-1.07Q60-2.79 60-5.02 60-7.25 60-9.35L60-9.35 61.02-11.76Q62.14-12.78 64.83-12.46L64.83-12.46Q67.25-10.74 70.55-11.09 73.85-11.44 75.89-9.02L75.89-9.02Q76.7-7.52 76.27-3.12L76.27-3.12Q73.15-1.07 69.34-1.24 65.53-1.4 62.09-0.38ZM65.47-4.51L72.08-4.51Q72.72-5.96 72.08-7.63L72.08-7.63 65.47-7.95 65.47-4.51ZM65.47-15.58L65.47-15.58Q63.43-16.33 64.13-17.99L64.13-17.99Q65.85-19.01 68.11-18.85 70.36-18.69 72.4-18.69L72.4-18.69Q73.75-18.15 73.1-16.6L73.1-16.6Q71.7-15.58 69.64-15.58 67.57-15.58 65.47-15.58ZM65.9-21.11L65.9-21.11Q63.7-22.08 64.51-23.53L64.51-23.53Q66.23-24.6 68.29-24.41 70.36-24.22 72.46-24.22L72.46-24.22Q73.37-23.42 73.15-22.13L73.15-22.13Q71.76-21.11 69.69-21.11 67.62-21.11 65.9-21.11ZM62.41-27.34L62.41-27.34Q58.49-29 59.3-32.17L59.3-32.17 60-33.25Q61.02-33.89 62.76-33.89 64.51-33.89 65.9-33.89L65.9-33.89Q65.9-35.29 66.06-36.34 66.23-37.38 66.92-38.4L66.92-38.4Q67.94-39.1 68.99-39.26 70.04-39.42 71.44-39.42L71.44-39.42Q73.15-38.4 73.15-37.03 73.15-35.66 73.15-33.89L73.15-33.89Q74.55-33.89 75.57-33.73 76.59-33.57 77.29-32.55L77.29-32.55Q78.04-31.21 77.61-29.43L77.61-29.43Q74.55-27.02 70.39-27.34 66.23-27.66 62.41-27.34Z" transform="translate(-4.03000020980835, 43.15453338623047)"></path></g> <!----> <!----> <!----> <!----> <!----> <!----> <!----></g></g> <g data-gra="path-slogan" fill-rule="" class="tp-slogan" fill="#de8972" transform="translate(5,159.82159423828125)"><rect x="0" height="1" y="14.0885009765625" width="76.60790252685547"></rect> <rect height="1" y="14.0885009765625" width="76.60790252685547" x="246.74890899658203"></rect> <g transform="translate(79.60790252685547,0)"><g transform="scale(3.2600000000000064)"><path d="M5.02-3.70L2.20-3.70L2.20 0L1.03 0L1.03-8.58L5.02-8.58Q7.88-8.58 7.88-6.28L7.88-6.28Q7.88-4.88 6.66-4.22L6.66-4.22Q7.69-3.94 7.69-2.58L7.69-2.58L7.78-1.03Q7.73-0.38 8.20-0.19L8.20-0.19L8.20 0L6.75 0Q6.61-0.61 6.56-2.16L6.56-2.16Q6.61-3.70 5.02-3.70L5.02-3.70ZM5.11-7.64L2.20-7.64L2.20-4.69L4.92-4.69Q6.66-4.69 6.66-6.19L6.66-6.19Q6.66-7.64 5.11-7.64L5.11-7.64ZM15.19 0L14.34-2.48L10.88-2.48L9.98 0L8.81 0L12.05-8.58L13.36-8.58L16.45 0L15.19 0ZM12.61-7.31L11.25-3.52L13.92-3.52L12.66-7.31L12.61-7.31ZM20.02-4.31L18.66-3.05L18.66 0L17.48 0L17.48-8.58L18.66-8.58L18.66-4.41L22.83-8.58L24.47-8.58L20.86-5.11L24.56 0L23.02 0L20.02-4.31ZM31.13-3.19L31.13-8.58L32.30-8.58L32.30-3.05Q32.16 0.05 28.78 0.14L28.78 0.14Q25.64 0.05 25.50-2.86L25.50-2.86L25.50-8.58L26.67-8.58L26.67-3.19Q26.72-0.84 28.83-0.80L28.83-0.80Q31.13-0.84 31.13-3.19L31.13-3.19ZM40.50-3.61L37.88-3.61L37.88-4.59L41.63-4.59L41.63 0L40.88 0L40.59-1.08Q39.61 0.09 37.78 0.14L37.78 0.14Q36.05 0.14 35.11-0.75L35.11-0.75Q33.70-2.06 33.75-4.36L33.75-4.36Q34.08-8.63 37.83-8.81L37.83-8.81Q41.02-8.63 41.48-6L41.48-6L40.36-6Q39.89-7.78 37.78-7.83L37.78-7.83Q35.11-7.64 34.97-4.31L34.97-4.31Q34.97-0.75 37.83-0.75L37.83-0.75Q38.86-0.75 39.61-1.31L39.61-1.31Q40.55-2.06 40.50-3.61L40.50-3.61ZM50.20-4.27L50.20-4.27Q50.02-7.64 47.20-7.83L47.20-7.83Q44.34-7.69 44.20-4.27L44.20-4.27Q44.34-0.94 47.20-0.80L47.20-0.80Q50.02-0.98 50.20-4.27ZM51.38-4.27L51.38-4.27Q51.09 0 47.20 0.14L47.20 0.14Q43.27 0 42.98-4.27L42.98-4.27Q43.22-8.72 47.20-8.81L47.20-8.81Q51.09-8.67 51.38-4.27Z" transform="translate(-1.03125, 8.8125)"></path></g></g></g></g><defs v-gra="od"></defs></svg>